<?xml version="1.0" encoding="utf-8"?>
<!-- Generator: Adobe Illustrator 19.0.0, SVG Export Plug-In . SVG Version: 6.00 Build 0)  -->
<svg version="1.1" id="Layer_1" xmlns="http://www.w3.org/2000/svg" xmlns:xlink="http://www.w3.org/1999/xlink" x="0px" y="0px"
	 viewBox="0 0 96 96" style="enable-background:new 0 0 96 96;" xml:space="preserve">
<style type="text/css">
	.st0{fill:#515150;}
</style>
<g id="XMLID_2_">
	<path id="XMLID_19_" class="st0" d="M24.7,73.4h9.5v-9.5h-9.5V73.4z M36.4,73.4h10.6v-9.5H36.4V73.4z M24.7,61.8h9.5V51.2h-9.5
		V61.8z M36.4,61.8h10.6V51.2H36.4V61.8z M24.7,49.1h9.5v-9.5h-9.5V49.1z M49.1,73.4h10.6v-9.5H49.1V73.4z M36.4,49.1h10.6v-9.5
		H36.4V49.1z M61.8,73.4h9.5v-9.5h-9.5V73.4z M49.1,61.8h10.6V51.2H49.1V61.8z M37.4,33.2v-9.5c0-0.3-0.1-0.5-0.3-0.7
		c-0.2-0.2-0.5-0.3-0.7-0.3h-2.1c-0.3,0-0.5,0.1-0.7,0.3c-0.2,0.2-0.3,0.5-0.3,0.7v9.5c0,0.3,0.1,0.5,0.3,0.7s0.5,0.3,0.7,0.3h2.1
		c0.3,0,0.5-0.1,0.7-0.3C37.3,33.7,37.4,33.5,37.4,33.2z M61.8,61.8h9.5V51.2h-9.5V61.8z M49.1,49.1h10.6v-9.5H49.1V49.1z
		 M61.8,49.1h9.5v-9.5h-9.5V49.1z M62.8,33.2v-9.5c0-0.3-0.1-0.5-0.3-0.7c-0.2-0.2-0.5-0.3-0.7-0.3h-2.1c-0.3,0-0.5,0.1-0.7,0.3
		c-0.2,0.2-0.3,0.5-0.3,0.7v9.5c0,0.3,0.1,0.5,0.3,0.7s0.5,0.3,0.7,0.3h2.1c0.3,0,0.5-0.1,0.7-0.3S62.8,33.5,62.8,33.2z M75.5,31.1
		v42.3c0,1.1-0.4,2.1-1.3,3s-1.8,1.3-3,1.3H24.7c-1.1,0-2.1-0.4-3-1.3c-0.8-0.8-1.3-1.8-1.3-3V31.1c0-1.1,0.4-2.1,1.3-3
		c0.8-0.8,1.8-1.3,3-1.3H29v-3.2c0-1.5,0.5-2.7,1.6-3.7c1-1,2.3-1.6,3.7-1.6h2.1c1.5,0,2.7,0.5,3.7,1.6c1,1,1.6,2.3,1.6,3.7v3.2
		h12.7v-3.2c0-1.5,0.5-2.7,1.6-3.7c1-1,2.3-1.6,3.7-1.6h2.1c1.5,0,2.7,0.5,3.7,1.6c1,1,1.6,2.3,1.6,3.7v3.2h4.2c1.1,0,2.1,0.4,3,1.3
		C75.1,28.9,75.5,29.9,75.5,31.1z"/>
</g>
</svg>
